<?xml version="1.0" encoding="UTF-8"?>
<svg width="67px" height="57px" viewBox="0 0 67 57" version="1.1" xmlns="http://www.w3.org/2000/svg" xmlns:xlink="http://www.w3.org/1999/xlink">
    <!-- Generator: Sketch 52.3 (67297) - http://www.bohemiancoding.com/sketch -->
    <title>help</title>
    <desc>Created with Sketch.</desc>
    <defs>
        <linearGradient x1="39.6012998%" y1="18.1759379%" x2="85.6205474%" y2="88.4432945%" id="linearGradient-1">
            <stop stop-color="#FF9313" offset="0%"></stop>
            <stop stop-color="#FF6600" offset="100%"></stop>
        </linearGradient>
        <path d="M34.171875,12.1289062 L31.3242187,13.3476562 C30.5683594,13.6757812 29.7011719,13.6757812 28.9453125,13.3476562 L26.1035156,12.1289062 C22.8222656,10.7226562 19.2832031,9.99609375 15.703125,9.99609375 L10.7109375,9.99609375 C7.37695312,9.99609375 4.67578125,12.6503906 4.67578125,15.9199219 L4.67578125,42.1992188 C4.67578125,45.46875 7.37695312,48.1230469 10.7109375,48.1230469 L15.703125,48.1230469 C19.2832031,48.1230469 22.8222656,48.8496094 26.1035156,50.2558594 L28.9511719,51.4746094 C29.7070312,51.8027344 30.5742188,51.8027344 31.3300781,51.4746094 L34.1777344,50.2558594 C37.4589844,48.8496094 40.9980469,48.1230469 44.578125,48.1230469 L49.5703125,48.1230469 C52.9042969,48.1230469 55.6054688,45.46875 55.6054688,42.1992188 L55.6054688,15.9199219 C55.6054688,12.6503906 52.9042969,9.99609375 49.5703125,9.99609375 L44.578125,9.99609375 C40.9921875,9.99609375 37.453125,10.7226562 34.171875,12.1289062 Z" id="path-2"></path>
        <filter x="-27.5%" y="-24.0%" width="155.0%" height="167.1%" filterUnits="objectBoundingBox" id="filter-3">
            <feOffset dx="0" dy="4" in="SourceAlpha" result="shadowOffsetOuter1"></feOffset>
            <feGaussianBlur stdDeviation="4" in="shadowOffsetOuter1" result="shadowBlurOuter1"></feGaussianBlur>
            <feColorMatrix values="0 0 0 0 1   0 0 0 0 0.462745098   0 0 0 0 0.0274509804  0 0 0 0.3 0" type="matrix" in="shadowBlurOuter1"></feColorMatrix>
        </filter>
    </defs>
    <g id="Page-1" stroke="none" stroke-width="1" fill="none" fill-rule="evenodd">
        <g id="Jelly-icons" transform="translate(-232.000000, -436.000000)" fill-rule="nonzero">
            <g id="help" transform="translate(235.000000, 430.000000)">
                <rect id="range" fill="#000000" opacity="0" x="0" y="0" width="60" height="60"></rect>
                <g id="appearance">
                    <use fill="black" fill-opacity="1" filter="url(#filter-3)" xlink:href="#path-2"></use>
                    <use fill="url(#linearGradient-1)" xlink:href="#path-2"></use>
                </g>
                <path d="M14.5722656,19.0136719 C13.4589844,19.0019531 12.5566406,19.9335938 12.5566406,21.0703125 L12.5566406,37.875 C12.5566406,39.0175781 13.4589844,39.9375 14.5722656,39.9433594 C17.9296875,39.9667969 19.0546875,40.1191406 22.4941406,41.0332031 C23.6367188,41.3554688 24.5273438,40.546875 24.5273438,39.1640625 C24.5273438,38.3789063 24.4921875,23.6191406 24.4921875,23.0390625 C24.4921875,22.265625 23.5957031,21.1640625 22.4648438,20.6777344 C19.0488281,19.2832031 17.9296875,19.0488281 14.5722656,19.0136719 Z M35.0790305,19.8925781 C33.8301817,20.3730469 32.8452648,21.4570313 32.8452648,22.2070313 C32.8452648,22.7753906 32.8066406,21.4746094 32.8066406,22.2480469 C32.8066406,23.6015625 33.7851201,24.3984375 35.0468437,24.0820313 C38.8320144,23.1914063 40.3447952,22.6113281 46.247859,21.9960938 C47.464521,21.8730469 48.46875,21.0878906 48.46875,19.96875 L48.46875,20.2792969 C48.46875,19.1601563 47.4709584,18.2460938 46.247859,18.2578125 C42.5463741,18.2929688 38.8384518,18.5214844 35.0790305,19.8925781 Z M36.09375,29.4960938 C34.9570312,29.9765625 34.2480469,30.6269531 34.2539062,31.3769531 C34.2539062,31.9453125 34.21875,31.6054688 34.21875,31.8984375 C34.21875,33.2519531 35.109375,33.2988281 36.2578125,32.9824219 C39.703125,32.0859375 41.0800781,31.5117188 46.453125,30.8964844 C47.5605469,30.7734375 48.4746094,30.9199219 48.4746094,29.6191406 L48.4746094,29.4609375 C48.46875,28.3359375 47.5605469,27.4160156 46.4472656,27.4277344 C43.078125,27.4628906 39.515625,28.125 36.09375,29.4960938 Z" id="section" fill="#FFFFFF"></path>
                <path d="M21.46875,15.1582031 C21.3808594,15.1582031 21.2871094,15.1464844 21.1933594,15.1230469 C17.9941406,14.2617188 13.4472656,14.4667969 13.40625,14.4667969 C12.8261719,14.4960938 12.328125,14.0449219 12.3046875,13.4648438 C12.28125,12.8847656 12.7265625,12.3867188 13.3066406,12.3632813 C13.5058594,12.3515625 18.2285156,12.1464844 21.7441406,13.0898438 C22.3066406,13.2421875 22.640625,13.8164063 22.4882812,14.3847656 C22.359375,14.8476563 21.9316406,15.1582031 21.46875,15.1582031 Z M9.84375,14.4667969 L9.22851562,14.4667969 C8.6484375,14.4667969 8.17382812,13.9921875 8.17382812,13.4121094 C8.17382812,12.8320312 8.6484375,12.3574219 9.22851562,12.3574219 L9.84375,12.3574219 C10.4238281,12.3574219 10.8984375,12.8320312 10.8984375,13.4121094 C10.8984375,13.9921875 10.4238281,14.4667969 9.84375,14.4667969 Z" id="highlight" fill="#FFFFFF"></path>
            </g>
        </g>
    </g>
</svg>