<?xml version="1.0" encoding="UTF-8"?>
<svg width="62px" height="60px" viewBox="0 0 62 60" version="1.1" xmlns="http://www.w3.org/2000/svg" xmlns:xlink="http://www.w3.org/1999/xlink">
    <!-- Generator: Sketch 52.3 (67297) - http://www.bohemiancoding.com/sketch -->
    <title>Homepage</title>
    <desc>Created with Sketch.</desc>
    <defs>
        <linearGradient x1="78.8588926%" y1="100%" x2="32.6048826%" y2="32.7756172%" id="linearGradient-1">
            <stop stop-color="#5172FF" offset="0%"></stop>
            <stop stop-color="#7F98FF" offset="100%"></stop>
        </linearGradient>
        <path d="M26.8828125,7.44726562 L8.7421875,20.2265625 C7.3359375,21.2167969 6.50390625,22.8222656 6.50390625,24.5390625 L6.50390625,48.9375 C6.50390625,50.25 7.57617187,51.3164062 8.89453125,51.3164062 L20.4023438,51.3164062 C22.2421875,51.3164062 23.7363281,49.828125 23.7363281,47.9941406 L23.7363281,45.1113281 C23.7363281,43.7988281 24.8085938,42.7324219 26.1269531,42.7324219 L33.7617188,42.7324219 C35.0800781,42.7324219 36.1523438,43.7988281 36.1523438,45.1113281 L36.1523438,47.9941406 C36.1523438,49.828125 37.6464844,51.3164062 39.4863281,51.3164062 L50.9941406,51.3164062 C52.3125,51.3164062 53.3847656,50.25 53.3847656,48.9375 L53.3847656,24.5332031 C53.3847656,22.8164062 52.5527344,21.2109375 51.1464844,20.2207031 L33,7.44726562 C31.1660156,6.15234375 28.7167969,6.15234375 26.8828125,7.44726562 Z" id="path-2"></path>
        <filter x="-29.9%" y="-22.3%" width="159.7%" height="162.4%" filterUnits="objectBoundingBox" id="filter-3">
            <feOffset dx="0" dy="4" in="SourceAlpha" result="shadowOffsetOuter1"></feOffset>
            <feGaussianBlur stdDeviation="4" in="shadowOffsetOuter1" result="shadowBlurOuter1"></feGaussianBlur>
            <feColorMatrix values="0 0 0 0 0.317647059   0 0 0 0 0.447058824   0 0 0 0 1  0 0 0 0.3 0" type="matrix" in="shadowBlurOuter1"></feColorMatrix>
        </filter>
    </defs>
    <g id="Page-1" stroke="none" stroke-width="1" fill="none" fill-rule="evenodd">
        <g id="Jelly-icons" transform="translate(-99.000000, -433.000000)" fill-rule="nonzero">
            <g id="Homepage" transform="translate(100.000000, 430.000000)">
                <rect id="range" fill="#000000" opacity="0" x="0" y="0" width="60" height="60"></rect>
                <g id="appearance">
                    <use fill="black" fill-opacity="1" filter="url(#filter-3)" xlink:href="#path-2"></use>
                    <use fill="url(#linearGradient-1)" xlink:href="#path-2"></use>
                </g>
                <path d="M19.8942161,24 C19.6740233,24 19.5,23.8326911 19.5,23.6285743 L19.5,23.528189 C19.5,22.7886838 19.8729072,22.0993713 20.5050736,21.6710606 L28.630898,16.1665991 C29.4512938,15.6111336 30.5522577,15.6111336 31.3726535,16.1665991 L39.4949264,21.6710606 C40.1235413,22.0960251 40.5,22.7886838 40.5,23.528189 L40.5,23.6285743 C40.5,23.8360373 40.3224252,24 40.1057839,24 L19.8942161,24 Z" id="section" fill="#FFFFFF"></path>
                <path d="M10.3125,38.9121094 C9.73242188,38.9121094 9.2578125,38.4433594 9.2578125,37.8574219 L9.25195312,30.5859375 C9.25195312,30.0058594 9.72070312,29.53125 10.3066406,29.53125 C10.8867188,29.53125 11.3613281,30 11.3613281,30.5859375 L11.3671875,37.8574219 C11.3671875,38.4375 10.8925781,38.9121094 10.3125,38.9121094 Z M10.3125,43.0429688 C9.73242188,43.0429688 9.2578125,42.5742188 9.2578125,41.9882812 L9.2578125,41.3730469 C9.2578125,40.7929688 9.7265625,40.3183594 10.3125,40.3183594 C10.8925781,40.3183594 11.3671875,40.7871094 11.3671875,41.3730469 L11.3671875,41.9882812 C11.3671875,42.5683594 10.8984375,43.0429688 10.3125,43.0429688 Z" id="highlight" fill="#FFFFFF"></path>
            </g>
        </g>
    </g>
</svg>